# xmcd
#
# Track frame offsets:
# 150
# 22321
# 44901
# 62756
# 84090
# 104754
# 127248
# 148012
# 170547
#
# Disc length: 2537 seconds
#
# Revision: 1
# Processed by: cddbd v1.4PL0 Copyright (c) Steve Scherf et al.
# Submitted via: CedeCatalogueitor 2.5 http://usuarios.lycos.es/kakasboy
#
DISCID=8b09e709
DTITLE=Marc Anthony - Todo A Su Tiempo
DYEAR=1900
DGENRE=Salsa
TTITLE0=Se Me Sigue Olvidando
TTITLE1=Te Conozco Bien
TTITLE2=Hasta Ayer
TTITLE3=Nadie Como Ella
TTITLE4=Te Amare
TTITLE5=Llegaste A Mi
TTITLE6=Y Sigues Siendo Tu
TTITLE7=Por Amar Se Da Todo
TTITLE8=Vieja Mesa
EXTD=
EXTT0=
EXTT1=
EXTT2=
EXTT3=
EXTT4=
EXTT5=
EXTT6=
EXTT7=
EXTT8=
PLAYORDER=
